<?xml version="1.0" encoding="UTF-8" standalone="no"?>
<svg
   xmlns:dc="http://purl.org/dc/elements/1.1/"
   xmlns:cc="http://creativecommons.org/ns#"
   xmlns:rdf="http://www.w3.org/1999/02/22-rdf-syntax-ns#"
   xmlns:svg="http://www.w3.org/2000/svg"
   xmlns="http://www.w3.org/2000/svg"
   width="540" height="540" viewBox="-540 -540 1080 1080"
   version="1.0">
  <metadata>
    <rdf:RDF>
      <cc:Work rdf:about="">
        <dc:format>image/svg+xml</dc:format>
        <dc:type rdf:resource="http://purl.org/dc/dcmitype/StillImage"/>
      </cc:Work>
    </rdf:RDF>
  </metadata>
<circle style="fill:#808080" r="522"/>
<path style="fill:#e54221" d="M-390.868,-74.2673
C-390.868,82.6051,-279.228,186.705,-172.581,186.705
C-83.5991,186.705,-19.487,117.126,0,0
C-73.3546,-60.2365,-95.9698,-120.826,-95.9698,-167.225
C-95.9698,-265.87,0.599728,-341.842,114.594,-341.842
C289.816,-341.842,464.53,-156.444,464.53,56.1736
C464.53,254.852,303.585,524.286,0,524.286
C289.555,524.286,524.286,289.555,524.286,0
C524.286,-224.029,347.544,-490.044,46.855,-490.044
C-237.986,-489.295,-390.868,-260.733,-390.868,-74.2673Z"/>
<path style="fill:#302061" d="M-512.362,-21.8987
C-507.319,212.145,-318.724,428.195,-80.2689,428.195
C121.632,428.195,271.93,302.221,271.93,150.284
C271.93,56.9106,211.829,-21.3489,105.256,-21.3489
C72.3186,-21.3489,33.2703,-12.5294,0,0
C-19.487,117.126,-83.5991,186.705,-172.581,186.705
C-279.228,186.705,-390.868,82.6051,-390.868,-74.2673
C-390.868,-260.733,-237.986,-489.295,46.855,-490.044
C347.544,-490.044,524.286,-224.029,524.286,0
C524.288,-289.555,289.555,-524.286,0,-524.286
C-281.008,-524.286,-505.419,-302.139,-512.362,-21.8987Z"/>
<path style="fill:#f7d619" d="M-524.286,0
C-524.286,289.555,-289.555,524.286,0,524.286
C303.585,524.286,464.53,254.852,464.53,56.1736
C464.53,-156.444,289.816,-341.842,114.594,-341.842
C0.599728,-341.842,-95.9698,-265.87,-95.9698,-167.225
C-95.9698,-120.826,-73.3546,-60.2365,0,0
C33.2703,-12.5294,72.3186,-21.3489,105.256,-21.3489
C211.829,-21.3489,271.93,56.9106,271.93,150.284
C271.93,302.221,121.632,428.195,-80.2689,428.195
C-318.724,428.195,-507.319,212.145,-512.362,-21.8987
C-505.419,-302.139,-281.008,-524.286,0,-524.286
C-289.555,-524.286,-524.286,-289.555,-524.286,0Z"/>
</svg>
